<svg xmlns="http://www.w3.org/2000/svg" xmlns:xlink="http://www.w3.org/1999/xlink" width="586.495" height="94" viewBox="0 0 586.495 94">
  <defs>
    <clipPath id="clip-path">
      <rect id="Rectangle_877" data-name="Rectangle 877" width="210.495" height="56.311" fill="none"/>
    </clipPath>
  </defs>
  <g id="Group_240" data-name="Group 240" transform="translate(60 -69.819)">
    <text id="株式会社ハンズクラフト_ライフサポート事業部" data-name="株式会社ハンズクラフト
ライフサポート事業部" transform="translate(180.495 107.819)" fill="#333" font-size="35" font-family="YuGothicUI-Bold, Yu Gothic UI" font-weight="700" letter-spacing="0.06em"><tspan x="0" y="0">株式会社ハンズクラフト</tspan><tspan y="0" font-family="SegoeUI-Bold, Segoe UI"></tspan><tspan x="0" y="47">ライフサポート事業部</tspan></text>
    <g id="ライフクラフトロゴ" transform="translate(-60 89.9)" clip-path="url(#clip-path)">
      <path id="Path_2508" data-name="Path 2508" d="M43.43,29.836A28.439,28.439,0,0,1,72,1.527a29.043,29.043,0,0,1,4.192.306A28.727,28.727,0,0,0,66.071,0a28.292,28.292,0,0,0-4.192,56.311A28.325,28.325,0,0,1,43.43,29.836" transform="translate(-17.04 0)" fill="#e50012"/>
      <path id="Path_2509" data-name="Path 2509" d="M100,54.656H85.489V35.728h5.76V50.122H100Z" transform="translate(-38.843 -16.411)" fill="#231815"/>
      <path id="Path_2510" data-name="Path 2510" d="M121.7,54.435h-4.976v-13.9H121.7Zm-.4-17.112a1.96,1.96,0,0,1-.62,1.461,2.045,2.045,0,0,1-1.475.6,2.073,2.073,0,0,1-1.054-.272,2.069,2.069,0,0,1-.421-3.25,2,2,0,0,1,1.475-.615,2.025,2.025,0,0,1,1.475.615,1.987,1.987,0,0,1,.62,1.461" transform="translate(-53.035 -16.19)" fill="#231815"/>
      <path id="Path_2511" data-name="Path 2511" d="M140.592,39.03a8.632,8.632,0,0,0-1.833-.26,1.56,1.56,0,0,0-1.248.52,2.191,2.191,0,0,0-.447,1.475v.491h2.508v3.332h-2.508v9.847h-4.976V44.588H129.8V41.256h2.288V41.01a6.816,6.816,0,0,1,.571-2.766,4.838,4.838,0,0,1,1.909-2.151,6.528,6.528,0,0,1,3.53-.847,12.323,12.323,0,0,1,2.494.26Z" transform="translate(-58.977 -16.19)" fill="#231815"/>
      <path id="Path_2512" data-name="Path 2512" d="M165.327,52.954h-9.883a3.43,3.43,0,0,0,1.42,2.076,4.308,4.308,0,0,0,2.564.806,13.429,13.429,0,0,0,5.54-1.394v3.046a15.229,15.229,0,0,1-2.64,1.017,14.262,14.262,0,0,1-3.948.457,9.394,9.394,0,0,1-4.411-.955,6.425,6.425,0,0,1-2.722-2.6,7.57,7.57,0,0,1-.9-3.714,7.4,7.4,0,0,1,.9-3.668,6.255,6.255,0,0,1,2.722-2.541,9.685,9.685,0,0,1,4.411-.921,7.828,7.828,0,0,1,3.3.73,6.021,6.021,0,0,1,2.618,2.391,8.023,8.023,0,0,1,1.027,4.282Zm-4.659-2.431A3.226,3.226,0,0,0,160,48.385a2.367,2.367,0,0,0-1.922-.8,2.627,2.627,0,0,0-2.006.813,2.974,2.974,0,0,0-.766,2.123Z" transform="translate(-68.312 -20.472)" fill="#231815"/>
      <path id="Path_2513" data-name="Path 2513" d="M193,54.661a3.876,3.876,0,0,1-1.413,3.107,6.36,6.36,0,0,1-4.2,1.195,12.352,12.352,0,0,1-2.771-.28,22.818,22.818,0,0,1-2.646-.8v-3.5a18.323,18.323,0,0,0,2.178,1.079,5.412,5.412,0,0,0,2.026.37q1.862,0,1.861-1.012a.831.831,0,0,0-.269-.607,3.8,3.8,0,0,0-.937-.6q-.668-.336-1.784-.8a7.132,7.132,0,0,1-2.343-1.611,3.444,3.444,0,0,1-.965-2.472,3.524,3.524,0,0,1,.641-1.993,4.6,4.6,0,0,1,1.936-1.564,7.318,7.318,0,0,1,3.129-.608q.44,0,1.123.062a11.727,11.727,0,0,1,1.723.321,9.264,9.264,0,0,1,1.977.738v3.4q-.441-.258-.737-.437a7.394,7.394,0,0,0-.793-.4,7.508,7.508,0,0,0-1.164-.39,5.539,5.539,0,0,0-1.372-.17,1.619,1.619,0,0,0-1.172.328.959.959,0,0,0-.316.655.848.848,0,0,0,.331.635,5.519,5.519,0,0,0,1.475.731,13.375,13.375,0,0,1,2.646,1.29,4.146,4.146,0,0,1,1.412,1.454A3.935,3.935,0,0,1,193,54.661" transform="translate(-82.578 -20.472)" fill="#231815"/>
      <path id="Path_2514" data-name="Path 2514" d="M221.812,58.925h-4.963v-1.98a7.51,7.51,0,0,1-2.2,1.673,6.379,6.379,0,0,1-2.771.553q-3.176,0-4.11-1.837a9.017,9.017,0,0,1-.935-4.145V45.022h4.963v7.512a4.84,4.84,0,0,0,.38,1.987,1.611,1.611,0,0,0,1.651.854,2.378,2.378,0,0,0,1.727-.615,10.466,10.466,0,0,0,1.3-1.571V45.022h4.963Z" transform="translate(-93.976 -20.68)" fill="#231815"/>
      <path id="Path_2515" data-name="Path 2515" d="M255.617,51.67a9.07,9.07,0,0,1-.4,2.69A7.213,7.213,0,0,1,254,56.7a5.754,5.754,0,0,1-2.11,1.653,6.971,6.971,0,0,1-3,.607,6.562,6.562,0,0,1-2.171-.287,8.821,8.821,0,0,1-1.579-.765V65.04H240.18V44.813h4.961v1.257A7.4,7.4,0,0,1,246.789,45a5.772,5.772,0,0,1,2.446-.43,6.558,6.558,0,0,1,3,.751,6,6,0,0,1,2.426,2.343,7.705,7.705,0,0,1,.951,4.009m-5.223.109a4.51,4.51,0,0,0-.4-2.042,2.584,2.584,0,0,0-1.035-1.134,2.688,2.688,0,0,0-1.309-.347,3.266,3.266,0,0,0-1.448.28,5.177,5.177,0,0,0-1.061.7v5.313c.175.092.36.193.559.307a4.9,4.9,0,0,0,.593.294,4.2,4.2,0,0,0,.634.2,3.037,3.037,0,0,0,.724.083,2.413,2.413,0,0,0,1.958-.983,4.178,4.178,0,0,0,.785-2.677" transform="translate(-109.129 -20.472)" fill="#231815"/>
      <path id="Path_2516" data-name="Path 2516" d="M288.591,51.67a9.1,9.1,0,0,1-.4,2.69,7.2,7.2,0,0,1-1.22,2.343,5.755,5.755,0,0,1-2.109,1.653,6.976,6.976,0,0,1-3,.607,6.556,6.556,0,0,1-2.17-.287,8.747,8.747,0,0,1-1.578-.765V65.04h-4.963V44.813h4.963v1.257A7.365,7.365,0,0,1,279.763,45a5.778,5.778,0,0,1,2.447-.43,6.562,6.562,0,0,1,3,.751,6,6,0,0,1,2.425,2.343,7.694,7.694,0,0,1,.951,4.009m-5.223.109a4.5,4.5,0,0,0-.4-2.042,2.572,2.572,0,0,0-1.033-1.134,2.694,2.694,0,0,0-1.309-.347,3.259,3.259,0,0,0-1.448.28,5.176,5.176,0,0,0-1.061.7v5.313c.174.092.36.193.557.307a5.027,5.027,0,0,0,.593.294,4.24,4.24,0,0,0,.634.2,3.039,3.039,0,0,0,.725.083,2.413,2.413,0,0,0,1.957-.983,4.175,4.175,0,0,0,.785-2.677" transform="translate(-124.111 -20.472)" fill="#231815"/>
      <path id="Path_2517" data-name="Path 2517" d="M320.992,51.751a7.447,7.447,0,0,1-.909,3.7,6.407,6.407,0,0,1-2.723,2.568,10.822,10.822,0,0,1-8.834,0,6.354,6.354,0,0,1-2.716-2.568,7.49,7.49,0,0,1-.9-3.7,7.762,7.762,0,0,1,.5-2.855,6.372,6.372,0,0,1,1.529-2.274,6.913,6.913,0,0,1,2.53-1.523,10.385,10.385,0,0,1,3.472-.533,10.494,10.494,0,0,1,3.509.54,6.862,6.862,0,0,1,2.522,1.51,6.374,6.374,0,0,1,1.509,2.267,7.781,7.781,0,0,1,.51,2.868m-5.223,0a4.132,4.132,0,0,0-.724-2.588,2.813,2.813,0,0,0-4.189,0,4.132,4.132,0,0,0-.724,2.588,4.174,4.174,0,0,0,.731,2.6,2.773,2.773,0,0,0,4.183.006,4.193,4.193,0,0,0,.724-2.6" transform="translate(-138.539 -20.471)" fill="#231815"/>
      <path id="Path_2518" data-name="Path 2518" d="M351.411,45.565l-1.833,4.93a3.36,3.36,0,0,0-2.288-1.065,2.591,2.591,0,0,0-1.812.7,6.845,6.845,0,0,0-1.468,2.6v5.981h-4.961v-13.9h4.961v3.361a6.93,6.93,0,0,1,1.654-2.425,3.818,3.818,0,0,1,2.784-1.181,4.018,4.018,0,0,1,1.468.245,11.344,11.344,0,0,1,1.495.752" transform="translate(-154.052 -20.472)" fill="#231815"/>
      <path id="Path_2519" data-name="Path 2519" d="M375.508,54.582a11.733,11.733,0,0,1-2.129.709,10.6,10.6,0,0,1-2.6.342q-5.362,0-5.361-5.19V44.9h-2.246v-.861l6.657-6.719h.564v4.164h4.742V44.9h-4.742v4.452a6.467,6.467,0,0,0,.1,1.255,1.282,1.282,0,0,0,.545.8,2.336,2.336,0,0,0,1.356.321,7.382,7.382,0,0,0,3.115-.985Z" transform="translate(-165.013 -17.142)" fill="#231815"/>
      <path id="Path_2520" data-name="Path 2520" d="M91.859,81.977c-.319,3.322-1.69,5.6-6.733,5.979l-.481-1.486c3.992-.148,4.942-1.517,5.3-3.034H83.585V81.977Zm-.66-.961H84.324V79.548H91.2Z" transform="translate(-37.978 -36.539)" fill="#231815"/>
      <path id="Path_2521" data-name="Path 2521" d="M110.475,87.523h-1.691V83.478a17,17,0,0,1-3.342,1.477l-.88-1.339a15.105,15.105,0,0,0,7.385-4.818l1.44.982a20.173,20.173,0,0,1-2.912,2.577Z" transform="translate(-47.509 -36.194)" fill="#231815"/>
      <path id="Path_2522" data-name="Path 2522" d="M135.267,80.136c-.13,2.627-.75,6.95-6.694,8.071l-.7-1.5c4.452-.773,5.173-3.013,5.514-5.016h-6.214V80.136Z" transform="translate(-57.782 -36.809)" fill="#231815"/>
      <path id="Path_2523" data-name="Path 2523" d="M153.863,79.036H155.5v1.736h1.561v1.486H155.5v.923c0,2.518-1.181,4-4.9,4.59l-.611-1.468c3.762-.416,3.872-2.032,3.872-3.122v-.923h-2.581v2.37h-1.6v-2.37h-1.5V80.772h1.5V79.066h1.6v1.706h2.581Z" transform="translate(-67.328 -36.304)" fill="#231815"/>
      <path id="Path_2524" data-name="Path 2524" d="M169.983,85.956a4.778,4.778,0,0,0,1.411-3.362l1.47.179c-.19,2.558-.93,3.609-1.651,4.372Zm5.283-7.09V80.4h1.851a1.191,1.191,0,0,0,1.021.467,1.89,1.89,0,0,0,.37-.041v1.042h-3.242v5.5h-1.581v-5.5h-3.322V80.4h3.322V78.866Zm2.3,3.708a5.792,5.792,0,0,0,1.421,3.5l-1.281,1.109a7.441,7.441,0,0,1-1.641-4.411Zm1.681-3.043a1.111,1.111,0,1,1-1.111-1.1,1.11,1.11,0,0,1,1.111,1.1m-1.551,0a.436.436,0,0,0,.871,0,.426.426,0,0,0-.431-.426.433.433,0,0,0-.44.426" transform="translate(-77.234 -36.025)" fill="#231815"/>
      <rect id="Rectangle_874" data-name="Rectangle 874" width="8.826" height="1.656" transform="translate(104.56 46.252)" fill="#231815"/>
      <path id="Path_2525" data-name="Path 2525" d="M218.013,79v2.359a23.114,23.114,0,0,1,4.812,2.083l-.851,1.655a19.415,19.415,0,0,0-3.961-2.062v4.7h-1.741V79Z" transform="translate(-98.266 -36.287)" fill="#231815"/>
      <rect id="Rectangle_875" data-name="Rectangle 875" width="85.929" height="13.614" rx="5.863" transform="translate(123.913 4.388)" fill="#f29600"/>
      <path id="Path_2526" data-name="Path 2526" d="M243.35,15.454v2.4h3.265v-2.4h1.3v6.172h-1.3V19.033H243.35v2.593h-1.306V15.454Z" transform="translate(-109.976 -7.098)" fill="#fff"/>
      <path id="Path_2527" data-name="Path 2527" d="M260.472,20.287h-2.617l-.49,1.339h-1.486l2.435-6.172h1.7l2.427,6.172h-1.478Zm-2.214-1.113h1.8l-.9-2.482Z" transform="translate(-116.262 -7.099)" fill="#fff"/>
      <path id="Path_2528" data-name="Path 2528" d="M272.893,15.454l2.664,4.8v-4.8h1.3v6.172h-1.905l-2.656-4.8v4.8h-1.3V15.454Z" transform="translate(-123.127 -7.098)" fill="#fff"/>
      <path id="Path_2529" data-name="Path 2529" d="M288.961,15.453c1.762,0,2.38.657,2.38,3.055,0,2.334-.539,3.117-2.325,3.117h-3.66V15.453Zm-2.308,1.174V20.45h2.205c1.052,0,1.178-.336,1.178-2.005,0-1.487-.229-1.817-1.186-1.817Z" transform="translate(-129.656 -7.098)" fill="#fff"/>
      <path id="Path_2530" data-name="Path 2530" d="M303.578,17.381c0-.7-.119-.909-1.345-.909-.813,0-1.414,0-1.414.721,0,.313.118.533.671.588l1.953.18a1.6,1.6,0,0,1,1.667,1.746c0,1.755-1.249,1.926-2.711,1.926-2.3,0-2.854-.415-2.87-2.193h1.3c0,.775,0,1.034,1.455,1.034,1,0,1.541,0,1.541-.753a.593.593,0,0,0-.625-.665l-2.261-.22a1.459,1.459,0,0,1-1.376-1.66c0-1.732,1.368-1.842,2.586-1.842,2.457,0,2.7.681,2.719,2.044Z" transform="translate(-136.096 -7.045)" fill="#fff"/>
      <path id="Path_2531" data-name="Path 2531" d="M317.327,17.64c-.008-1.019-.443-1.128-1.478-1.128-1.392,0-1.6.141-1.6,1.919,0,1.7.087,2.03,1.526,2.03,1.367,0,1.565-.11,1.581-1.262h1.312c-.015,1.707-.474,2.436-2.7,2.436-2.3,0-3.028-.43-3.028-3.046,0-2.256.261-3.251,2.791-3.251,1.874,0,2.87.274,2.885,2.3Z" transform="translate(-142.188 -7.045)" fill="#fff"/>
      <path id="Path_2532" data-name="Path 2532" d="M330.51,15.453c.553,0,1.8,0,1.8,1.707a1.429,1.429,0,0,1-.91,1.559,1.035,1.035,0,0,1,.815,1.167v.563a3.8,3.8,0,0,0,.15,1.175h-1.344a4.267,4.267,0,0,1-.094-.948v-.595c0-.776-.443-.776-.847-.776h-2.014v2.319h-1.306V15.453Zm-2.442,1.174v1.535h2.189c.49,0,.767-.149.767-.83,0-.58-.316-.706-.75-.706Z" transform="translate(-148.469 -7.098)" fill="#fff"/>
      <path id="Path_2533" data-name="Path 2533" d="M344.517,20.287H341.9l-.491,1.339h-1.485l2.435-6.172h1.7l2.426,6.172h-1.478ZM342.3,19.174h1.8l-.9-2.482Z" transform="translate(-154.449 -7.099)" fill="#fff"/>
      <path id="Path_2534" data-name="Path 2534" d="M359.82,15.454v1.174H356.35v1.457h3.328v1.182H356.35v2.358h-1.3V15.454Z" transform="translate(-161.32 -7.098)" fill="#fff"/>
      <path id="Path_2535" data-name="Path 2535" d="M369.982,16.628v5h-1.3v-5H366.5V15.453h5.669v1.174Z" transform="translate(-166.526 -7.098)" fill="#fff"/>
      <path id="Path_2536" data-name="Path 2536" d="M92.078,13.744A1.434,1.434,0,0,0,93.7,15.262c-.3,2.425-1.265,5.685-6.663,6.775l-.781-1.549c4.349-.61,5.367-2.851,5.666-5.134H85.59v-1.61Zm2.642.051a1.157,1.157,0,1,1-1.152-1.151A1.145,1.145,0,0,1,94.72,13.8m-1.635,0a.479.479,0,0,0,.482.469.469.469,0,0,0,.473-.469.478.478,0,1,0-.955,0" transform="translate(-38.889 -5.808)" fill="#e50012"/>
      <path id="Path_2537" data-name="Path 2537" d="M116.592,22.512H108.47V14.7h8.122Zm-1.727-6.276h-4.72v4.738h4.72Z" transform="translate(-49.285 -6.751)" fill="#e50012"/>
      <path id="Path_2538" data-name="Path 2538" d="M133.927,21.182c1.11-.082,3.4-.265,3.4-3.006a2.248,2.248,0,0,0-2.169-2.517c-.052.887-.442,6.215-3.2,6.215-1.388,0-2.252-1.4-2.252-2.995a4.7,4.7,0,0,1,4.987-4.748c2.365,0,4.349,1.284,4.349,4.187a4.224,4.224,0,0,1-1.4,3.3,5.89,5.89,0,0,1-3.115,1.1Zm-2.591-2.323c0,.387.112,1.3.7,1.3.782,0,1.368-2,1.563-4.432a3.147,3.147,0,0,0-2.262,3.128" transform="translate(-58.936 -6.491)" fill="#e50012"/>
      <path id="Path_2539" data-name="Path 2539" d="M153.091,18.06c-.154.2-.247.325-.443.57l-.421-2.221a7.084,7.084,0,0,0,1.378-3.6l1.511.1a13.917,13.917,0,0,1-.6,2.465V22.5h-1.428Zm3.218,1.182h-.884V14.9h2.458v-.438h-2.663V13.15h6.909v1.314h-2.777V14.9H161.8v4.34h-2.632a5.006,5.006,0,0,1-.474,1.264,11.128,11.128,0,0,0,3.528.469l-.463,1.548a15.26,15.26,0,0,1-4.144-.927,7.245,7.245,0,0,1-2.334.927l-.6-1.4a5.531,5.531,0,0,0,1.522-.439,7.156,7.156,0,0,1-.936-.937Zm.186,0a3.909,3.909,0,0,0,.812.642,2.13,2.13,0,0,0,.33-.642Zm1.389-3.27h-1.059v.6h1.059Zm-.011,2.159c0-.092.011-.4.011-.6h-1.059v.6Zm2.508,0v-.6h-1.029c0,.285-.01.387-.02.6Zm-1.029-1.558h1.029v-.6h-1.029Z" transform="translate(-69.167 -5.885)" fill="#e50012"/>
      <path id="Path_2540" data-name="Path 2540" d="M177.528,14.483c-1.069.061-1.337.061-1.687.072l-.185-1.407a22.08,22.08,0,0,0,4.637-.448l.442,1.375a11.688,11.688,0,0,1-1.7.275v1.039h1.594v1.427h-1.511a8.392,8.392,0,0,0,1.542,2.109l-.781,1.3a7.2,7.2,0,0,1-.843-1.385V22.46h-1.511V18.966a8.58,8.58,0,0,1-1.511,2.18l-.546-1.885a8.425,8.425,0,0,0,1.912-2.445h-1.779V15.389h1.923Zm5.069,5.675h-1.532V13.535H182.6Zm2.447-7.4v8.517a1.031,1.031,0,0,1-1.069,1.181h-2.088l-.288-1.63h1.582c.268,0,.309-.061.309-.265v-7.8Z" transform="translate(-79.728 -5.834)" fill="#e50012"/>
      <path id="Path_2541" data-name="Path 2541" d="M207.017,19.755c-.133-.245-.164-.285-.38-.633-.195.021-.6.061-1.368.1v.57h2.889v1.038h-2.889V21.4h3.249v1.172h-7.66V21.4h2.89v-.571H201.29V19.8h2.458v-.5c-.351.01-2.088.071-2.478.071l-.1-1.213c.453,0,.5-.01.689-.01a4.98,4.98,0,0,0,.33-.611H201v.306c0,3.22-.649,4.34-.988,4.931l-1.388-1.04a7.237,7.237,0,0,0,.844-3.891V13.4h8.688v2.638H201v.377h7.516v1.12h-1.254a8.865,8.865,0,0,1,1.121,1.487Zm-.361-5.216H201v.478h5.654Zm-1.089,2.995h-1.707c-.165.306-.186.336-.35.611.452,0,1.5,0,2.345-.071a4.08,4.08,0,0,0-.442-.47Z" transform="translate(-90.249 -6.154)" fill="#e50012"/>
      <path id="Path_2542" data-name="Path 2542" d="M2.015,22.353l21.06-18.5,20.847,18.5Z" transform="translate(-0.916 -1.771)" fill="#e50012"/>
      <rect id="Rectangle_876" data-name="Rectangle 876" width="36.201" height="19.662" transform="translate(3.953 19.095)" fill="#e50012"/>
      <path id="Path_2543" data-name="Path 2543" d="M4.084,14.092l.827,3.227,2.994.82-2.994.82-.827,3.2-.827-3.2L0,18.139l3.257-.82Z" transform="translate(0 -6.473)" fill="#e50012"/>
      <path id="Path_2544" data-name="Path 2544" d="M9.4,3.855l.827,3.227,2.994.82-2.994.82-.827,3.2-.827-3.2L5.321,7.9l3.257-.82Z" transform="translate(-2.418 -1.771)" fill="#e50012"/>
      <path id="Path_2545" data-name="Path 2545" d="M47.985,20.533l.827,3.227,2.994.82-2.994.82-.827,3.2-.827-3.2L43.9,24.58l3.257-.82Z" transform="translate(-19.947 -9.432)" fill="#fff"/>
      <path id="Path_2546" data-name="Path 2546" d="M58.54,25.626l.827,3.227,2.994.82-2.994.82-.827,3.2-.827-3.2-3.257-.82,3.257-.82Z" transform="translate(-24.743 -11.771)" fill="#fff"/>
      <path id="Path_2547" data-name="Path 2547" d="M20.817,52.91H17.74V37.757l-2.578,2.289-2.042-2.082,7.7-7.152V40.6h5.445l-.041-9.787,7.566,7.182-1.83,1.895L29.3,37.757,29.255,52.91H26.179l.041-9.708-5.4-.079Z" transform="translate(-5.962 -14.153)" fill="#fff"/>
      <path id="Path_2548" data-name="Path 2548" d="M55.037,50.883H45.891V62.129h9.146V59.643H48.344V53.408h6.693Z" transform="translate(-20.851 -23.372)" fill="#fff"/>
    </g>
  </g>
</svg>
