<svg xmlns="http://www.w3.org/2000/svg" width="400" height="361.441" viewBox="0 0 400 361.441"><defs><style>.a{fill:#757272;}.b{fill:#fff;font-size:15px;font-family:YuGo-Bold, YuGothic;font-weight:700;letter-spacing:0.06em;}.c{fill:none;stroke:#707070;stroke-linecap:round;stroke-width:4px;}</style></defs><g transform="translate(0 -3449)"><g transform="translate(0 301.441)"><rect class="a" width="400" height="60" rx="30" transform="translate(0 3449)"/><text class="b" transform="translate(200 3485)"><tspan x="-102.9" y="0">販売・査定時のポイントなど</tspan></text></g><g transform="translate(192.815 115.8)"><path class="c" d="M-395.677,12214.217v19.932" transform="translate(402.676 -8610.056)"/><path class="c" d="M-454.364,12312.094l7.071,7.07,7.071-7.07" transform="translate(454.364 -8694.522)"/></g><g transform="translate(0 200.961)"><rect class="a" width="400" height="60" rx="30" transform="translate(0 3449)"/><text class="b" transform="translate(200 3485)"><tspan x="-94.95" y="0">工具販売・査定の現場体験</tspan></text></g><g transform="translate(192.815 15.319)"><path class="c" d="M-395.677,12214.217v19.932" transform="translate(402.676 -8610.056)"/><path class="c" d="M-454.364,12312.094l7.071,7.07,7.071-7.07" transform="translate(454.364 -8694.522)"/></g><g transform="translate(0 100.48)"><rect class="a" width="400" height="60" rx="30" transform="translate(0 3449)"/><text class="b" transform="translate(200 3485)"><tspan x="-102.9" y="0">使い方・メンテナンスの実践</tspan></text></g><g transform="translate(192.815 -85.161)"><path class="c" d="M-395.677,12214.217v19.932" transform="translate(402.676 -8610.056)"/><path class="c" d="M-454.364,12312.094l7.071,7.07,7.071-7.07" transform="translate(454.364 -8694.522)"/></g><rect class="a" width="400" height="60" rx="30" transform="translate(0 3449)"/><text class="b" transform="translate(200 3485)"><tspan x="-102.6" y="0">工具に関する基礎知識の習得</tspan></text></g></svg>