<svg xmlns="http://www.w3.org/2000/svg" width="827.258" height="227.62" viewBox="0 0 827.258 227.62">
  <g id="ファーストビュー文字" transform="translate(-261.38 -507.431)">
    <g id="Group_23" data-name="Group 23">
      <path id="Path_2" data-name="Path 2" d="M268.889,576.848c-.661.261-1.165.02-1.6-.888a1.54,1.54,0,0,1,.3-2,237.031,237.031,0,0,0,16.434-22.271,18.247,18.247,0,0,1,2.445-3.041c-2.169-.212-3.661.147-4.561,1.079a6.328,6.328,0,0,1-3.633,1.812c-1.576.361-2.581.045-3.1-.862q-.775-1.485,1.954-2.532a38,38,0,0,0,5.783-2.683c1.98-1.117,2.869-2.631,2.668-4.626a27.842,27.842,0,0,0-1.263-5.558,6.179,6.179,0,0,1,0-4.747c.561-1.259,1.386-1.69,2.31-1.206.843.568,1.283,1.893,1.24,4.225a30.518,30.518,0,0,0,1.573,9.05l1.413-.191c3.311-1.14,5.714-1.848,6.954-2.369s1.915-.034,2.021,1.3c.108,1.414-.958,2.348-2.951,2.716a20.629,20.629,0,0,0-6.619,2.447,6.519,6.519,0,0,0,1.725,8.215c2.539,2.37,4.4,4,5.415,4.9a4.446,4.446,0,0,1,1.3,3.225c-.061,1.25-.216,1.919-.547,2.008a2.132,2.132,0,0,1-.993.433c-.414.091-1.008-.564-1.866-1.966s-2.716-2.95-5.66-4.648c.159,9.158.459,16.814.9,23.136a1.464,1.464,0,0,1-2.061,1.2,55.03,55.03,0,0,1-2.833-4.864,6.2,6.2,0,0,1-.88-2.734c.076-.417.819-.763,2.4-.957a69.285,69.285,0,0,1-.46-7.32c-.153-3.995-.31-8.239-.47-12.65C280.053,562.746,274.187,570.26,268.889,576.848Zm22.295-63.512c1.251.061,2,.215,2.26.626a2.362,2.362,0,0,1-.131,2.085,11.513,11.513,0,0,1-3.01,4.05,41.6,41.6,0,0,0-5.445,7.756,73.2,73.2,0,0,1-5.193,7.835c-1.552,1.776-2.54,2.376-3.133,1.8-.511-.657-.52-1.157-.028-1.581a2.838,2.838,0,0,0,1.219-1.77,42.228,42.228,0,0,1,3.478-5.89c2.111-3.118,4.78-7.662,7.925-13.546C289.36,513.784,289.936,513.357,291.184,513.336Zm10.628,46.033c2.327-5.12,4.4-10.153,6.236-14.931,1.918-4.614,3.346-8.719,4.451-12.236s1.151-5.6.141-6.248c-1.013-.732-1.025-1.482-.041-2.331a3.137,3.137,0,0,1,3.324-.392q1.891.966.613,6.485c-.853,3.6-4.828,14.492-11.844,32.434a11.148,11.148,0,0,0,4.886-1.584,48.051,48.051,0,0,1,9.427-3.828,79.086,79.086,0,0,0,9.594-3.831,13.977,13.977,0,0,0-2.315-3.79,4.455,4.455,0,0,1-1.228-3.56,1.581,1.581,0,0,1,1.718-1.779c1.082-.018,2.1.963,3.214,2.859,1.032,1.814,2.324,4.29,3.96,7.426,1.639,3.219,2.932,5.779,3.885,7.844.953,2.149,1.06,3.479.32,4.074a3.066,3.066,0,0,1-2.235.79c-.667-.073-1.264-.9-1.71-2.552-.446-1.741-1.737-4.134-3.708-7.348-8.706,2.233-14.83,4.422-18.457,6.567a27.076,27.076,0,0,1-11.013,3.607C299.2,567.16,299.49,564.656,301.812,559.369Z" fill="#fff" stroke="#fff" stroke-miterlimit="10" stroke-width="1"/>
      <path id="Path_3" data-name="Path 3" d="M381.542,522c-5.795,16.257-11.425,32.511-16.975,48.6a6.683,6.683,0,0,1,.551,2.905,3.1,3.1,0,0,1-1.211,2.186,3.252,3.252,0,0,1-2.986.718c-1.17-.229-.41-4.406,2.526-12.785,2.853-8.295,6.966-20.774,12.587-37.528a73.578,73.578,0,0,0-17.55,10.8q-1.722,1.528-2.988.551c-.928-.65-.862-1.65.281-3,7.579-4.712,14.994-9.338,22.329-13.713C380.338,519.772,381.512,520.252,381.542,522Zm14.486,14.072c3.076-.3,4.992-.254,5.5.154.59.406.848.9.609,1.488-.239.67-1.978,1.2-5.135,1.672-3.239.472-7.622,2.215-13.063,5.39q-2.607.921-2.761-.7-.15-1.5,2.2-2.537Q391.292,536.654,396.028,536.072Zm3.4,27.755a2.46,2.46,0,0,1-2.989.552c-3.553-3.187-6.01-5.642-7.294-7.618a14.718,14.718,0,0,1-1.983-3.879,1.826,1.826,0,0,1,.639-1.594c.575-.426,1.327-.272,2.424.541a21.8,21.8,0,0,1,3.229,3.692,21.346,21.346,0,0,0,5.421,5.235C399.976,561.9,400.161,562.981,399.426,563.827Z" fill="#fff" stroke="#fff" stroke-miterlimit="10" stroke-width="1"/>
      <path id="Path_4" data-name="Path 4" d="M452.46,557.2c4.727-5.912,7.484-10.207,8.432-13.138.868-2.763,1.085-4.683.648-5.841a4.023,4.023,0,0,0-2.787-2.2,7.512,7.512,0,0,0-5.067.67,22.424,22.424,0,0,0-6.657,5.113,57.507,57.507,0,0,0-5.063,5.751c-.891,1.431-1.965,1.949-3.053,1.635-1.086-.231-1.7-2.3-1.774-6.214a157.835,157.835,0,0,1,.628-16.583,35.362,35.362,0,0,0-5.882,1.767c-1.985.784-3.4.809-4.328.159a1.51,1.51,0,0,1-.7-2.069c.4-.84,1.145-1.187,2.4-.958a5.627,5.627,0,0,0,3.49-.478,15.663,15.663,0,0,1,4.227-1.156A3.471,3.471,0,0,0,439,520.542a36.319,36.319,0,0,0,.18-4,2.5,2.5,0,0,1,1.791-2.363,2.149,2.149,0,0,1,2.759.618,1.735,1.735,0,0,1-.123,2.5,4.548,4.548,0,0,0-1.021,3.516,27.91,27.91,0,0,1,7.1-3.705q2.611-.67,2.261.71a2.975,2.975,0,0,1-1.879,2.115c-1.156.519-2.727,1.213-4.958,2.168-2.149.953-3.292,2.306-3.341,4.222-.485,5.671-.8,11.256-.871,16.92a69.464,69.464,0,0,0,4.992-5,16.152,16.152,0,0,1,4.52-3.493c1.323-.523,2.9-1.133,4.718-1.665a9.915,9.915,0,0,1,6,.062,6.036,6.036,0,0,1,4.4,4.171c.624,2.321-.146,5.915-2.642,10.872-2.41,5.039-7.962,11.381-16.575,18.943-7.72,6.214-13.808,10.483-18.183,12.724-4.457,2.244-6.773,3.2-6.942,3.037-.254-.246-.089-.332.41-.341C437.553,571.532,447.815,563.026,452.46,557.2Z" fill="#fff" stroke="#fff" stroke-miterlimit="10" stroke-width="1"/>
      <path id="Path_5" data-name="Path 5" d="M532.717,559.71c3.255-9.134,4.549-16.151,3.8-21.135s-2.06-8.292-4.169-9.837a11.157,11.157,0,0,0-5.123-2.493,7.814,7.814,0,0,0-4.557,1.329q-6.323,17.1-11.838,23.19c-3.762,3.98-6.559,5.944-8.228,5.723a4.645,4.645,0,0,1-3.716-2.933c-.779-1.736-.66-4.486.522-8.337,1.1-3.85,3.944-7.813,8.373-11.721a105.894,105.894,0,0,1,12.494-9.461,64.448,64.448,0,0,1,7.143-1.041,9.372,9.372,0,0,1,6.114,1.976,14.767,14.767,0,0,1,5.276,6.487c1.3,2.808,1.787,6.964,1.628,12.213-.239,5.417-1.882,11.441-5.1,18.076-3.3,6.637-7.207,11.785-11.809,15.279s-7.071,5.2-7.492,4.961-.425-.493.151-.919A74.477,74.477,0,0,0,532.717,559.71Zm-14.6-30.308c-7.163,4.7-11.5,8.944-13.355,12.557-1.769,3.612-2.64,6.209-2.7,7.792a3.3,3.3,0,0,0,1.973,3.3A47.835,47.835,0,0,0,518.115,529.4Z" fill="#fff" stroke="#fff" stroke-miterlimit="10" stroke-width="1"/>
      <path id="Path_6" data-name="Path 6" d="M624.479,515.136a1.639,1.639,0,0,1,.372,2.242c-.4,1.006-1.058,1.434-1.977,1.2-7.3-3.2-13.055-3.6-17.343-1.2a36.582,36.582,0,0,1-3.006,9.13c.833-.014,1.829-.2,3.16-.3s2.995-.135,5.244-.091c3.5.022,6.178.891,8.125,2.69.429.742.191,1.412-.8,2.012a13.765,13.765,0,0,0-2.859,3.215,14.488,14.488,0,0,1-2.69,3.294c1.251.145,1.517,1.056.8,2.818a19.24,19.24,0,0,1,10.505.649c2.331-.04,3.265,1.026,2.72,3.2-4.014,3.818-7.213,6.621-9.513,8.41-2.384,1.79-3.706,2.4-3.884,1.734-.175-.5.554-1.676,2.108-3.285,1.556-1.526,3.6-3.727,6.217-6.437-4.284-2.091-10.351-1.4-17.955,1.895-7.769,3.382-14.218,6.077-19.512,8.168-5.21,2.088-7.7,2.381-7.647.8.057-1.5.294-2.254.792-2.345.415-.09,1.245-.272,2.487-.626-1.609-1.555-3.159-4.526-4.649-8.747a38.656,38.656,0,0,1-2.39-8.119c-.1-1.248.389-1.589,1.477-1.275,1.09.4,1.943,1.548,2.474,3.371.616,1.9,1.667,4.884,3.152,8.856.407-.507.9-1.015,1.307-1.438a.749.749,0,0,1,1.164-.1c.256.329,1,.149,1.988-.618q1.608-.9,4.212-2.072c-.874-2.316-1.658-4.3-2.185-5.874-1.322.606-2.48,1.042-3.472,1.476q-1.613.652-2.248.039a1.552,1.552,0,0,1-.61-1.572c.07-.75,1.55-1.859,4.356-3.323a111.467,111.467,0,0,1,12.982-5.306,2.217,2.217,0,0,1,1.23-1.1,2.587,2.587,0,0,1,.993-.35,32.2,32.2,0,0,0,2.369-7.454,58.64,58.64,0,0,0-14.075,4.743,5.266,5.266,0,0,0,.486,3.988c.609,1.489.46,2.491-.615,2.926-.991.517-1.834-.135-2.28-1.793a3.919,3.919,0,0,0-2.551-3.036,41.247,41.247,0,0,0-7.019,3.453c-1.563,1.11-4.393,1.159-8.574.149-.531-1.74.118-2.75,1.944-3.115,3.751.184,6.407-.278,7.722-1.3a26.894,26.894,0,0,1,4.535-2.578c-.606-1.321-1.45-1.973-2.449-1.956-.692-1.486-.291-2.41,1.118-2.767,1.494-.276,3.257.526,5.456,2.487,5.384-1.677,10.849-3.52,16.229-5.363a3.143,3.143,0,0,0-1.727-3.551c-1.427-.641-1.691-1.47-.707-2.319.9-.932,2.149-.954,3.665.019a6.541,6.541,0,0,1,2.583,4.868C610.921,511.292,617.175,511.766,624.479,515.136Zm-56.751,55.118a51.9,51.9,0,0,0,4.195-7.734c.881-2.014.506-4.422-1.129-7.475a1.674,1.674,0,0,1,.871-2.6c1.238-.6,2.163-.121,3.1,1.279a10.246,10.246,0,0,1,1.418,4.888c.033,1.914-1.977,6.031-5.948,12.345Q566.919,574.016,567.728,570.254Zm12.062,13.614a57.308,57.308,0,0,0,5.938-3.35,34.322,34.322,0,0,0,8.684-8.23,27.728,27.728,0,0,0-6.179-5.722,2.046,2.046,0,0,1-.878-2.566c-4.5,4.409-6.808,5.948-7.08,4.7-.27-1.161.861-3.179,3.644-5.975s4.664-4.746,5.812-5.765a10.89,10.89,0,0,0,2.592-4.209c.552-1.758,1.459-2.274,2.635-1.711,1.178.728,1.446,1.724.888,3.149.908-.432,2.819-.715,5.982-.77,3.082.029,5.168.243,6.175.724q1.64.848,1.056,3.23a75.523,75.523,0,0,1-10.077,14.333l-2.517,3.708a14.088,14.088,0,0,1-4.178,3.986,22.726,22.726,0,0,1-19.1,7.744c-1.414.109-1.754-.3-1.1-1.146q.852-1.264,4.219-1.572A10.706,10.706,0,0,0,579.79,583.868Zm2.958-35.777c-1.16.353-1.738.613-1.734.863-.078.251.256.329.837.235s.836.152.762.736c-.071.668-.147,1.086-.144,1.252.994-.267,2.9-.967,5.793-2.1,2.811-1.132,6.039-2.271,9.6-3.582,3.475-1.309,6.371-2.359,8.355-3.226a3.958,3.958,0,0,1,.4-1.173c.24-.588-.93-.817-3.511-.772C596.064,542.862,589.28,545.4,582.748,548.091Zm18.107,16.424a27.666,27.666,0,0,0,3.715-6.644c-.844-.651-3.094-.779-6.584-.3-3.49.394-6.624,2.2-9.4,5.327a4.778,4.778,0,0,1,2.852,1.2,38.451,38.451,0,0,1,5.33,4.737A20,20,0,0,0,600.855,564.515Zm-3.993-33.242a26.591,26.591,0,0,0-7.1,3.288,64.948,64.948,0,0,1,1.282,6.64,8.2,8.2,0,0,0,4.94-3.25C597,534.186,597.208,532.017,596.862,531.273Zm14.281,2.333c1.229-1.188,1.961-2.2,2.031-2.95a27.437,27.437,0,0,0-12.335-.535,54,54,0,0,1-1.355,8.268,42.334,42.334,0,0,1,8.879-1.82C609.018,535.892,610,534.875,611.143,533.606Z" fill="#fff" stroke="#fff" stroke-miterlimit="10" stroke-width="1"/>
      <path id="Path_7" data-name="Path 7" d="M647.19,574.345c-.892.389-1.494.251-1.809-.569a107.418,107.418,0,0,1-3.365-38.095,2.125,2.125,0,0,1,1.92-1.682c.9-.091,1.357.5,1.378,1.7a107.355,107.355,0,0,0,1.258,28.988c.91.658,1.434.574,1.794-.257s1.086-2.193,2.247-4.387a15.026,15.026,0,0,1,5.227-5.413c2.373-1.466,3.716-1.864,3.8-1.041.088.748-1.453,2.648-4.624,5.628-3.169,3.054-5.194,7.286-6.219,13A2.977,2.977,0,0,1,647.19,574.345Zm44.238-12.169a5.511,5.511,0,0,1-2.547.12,53.9,53.9,0,0,1-5.417-1.18,25.229,25.229,0,0,1-5.505-1.852,3.056,3.056,0,0,1-1.915-2.366c-.091-.9.486-2.182,1.881-3.855a26.6,26.6,0,0,1,5.312-4.891c2.221-1.538,3.852-2.616,4.889-3.309-.171-1.2-.36-3.442-.493-6.738s-.508-7.636-1.279-13.17A84.642,84.642,0,0,0,667.3,537.112a5.465,5.465,0,0,1-3.8,1.041c-.9-.209-1.21-.578-.772-1.26A90.19,90.19,0,0,1,685.564,522.7c-.108-1.947.621-3.084,1.963-3.482a4.331,4.331,0,0,1,3.3.092.978.978,0,0,1,.33,1.718,8.423,8.423,0,0,0-1.3,2.871c.18,5.994.663,12.132,1.371,18.341,1.551-1.3,2.592-1.769,3.044-1.627a1.05,1.05,0,0,1,.475,1.416,2.419,2.419,0,0,1-1.547,1.526c-.819.314-1.252,1.3-1.222,3.02l.472,14.084C692.391,561.484,692.1,562.015,691.428,562.176Zm-2.871-14.117a21.75,21.75,0,0,0-8.631,7.947A15.739,15.739,0,0,0,688.9,559,74.039,74.039,0,0,0,688.557,548.059Z" fill="#fff" stroke="#fff" stroke-miterlimit="10" stroke-width="1"/>
      <path id="Path_8" data-name="Path 8" d="M303.639,615.944a18.044,18.044,0,0,1,.218,2.994c-.064,1.084-.285,2.753-.494,5.089a20.925,20.925,0,0,1-1.479,5.939,37.7,37.7,0,0,0-1.665,4.775,3.779,3.779,0,0,1,.834.07,4.588,4.588,0,0,1,1.425.557,8.873,8.873,0,0,1,2.2,1.96c.934,1.067,3.141,3.443,6.7,7.212s5.6,5.9,6.19,6.388c.51.574,1.442,1.474,2.88,2.781a49.525,49.525,0,0,0,3.975,3.512,14.776,14.776,0,0,0,3.289,2.358,17.847,17.847,0,0,0,2.524,1.455,26.268,26.268,0,0,0,3.937,1.347c1.841.468,3.022,1.363,3.374,2.439.269,1.078-.475,1.424-2.309,1.29-1.919-.216-3.254-.36-4.173-.51a5.426,5.426,0,0,1-2.09-.463,16.955,16.955,0,0,1-3.619-2.186c-1.94-1.382-3.545-2.686-5.148-3.908a29.954,29.954,0,0,1-3.129-2.776c-.592-.49-2.2-2.21-5.167-4.991a75.052,75.052,0,0,1-6.023-6.307c-1.191-1.479-2.044-2.629-2.811-3.615a15.358,15.358,0,0,0-2.372-2.291c-.842-.568-1.349-.976-1.6-1.138-.236.754-.632,1.927-1.185,3.685a64.567,64.567,0,0,1-3.521,8.223c-1.848,3.862-3.217,6.551-4.026,7.9-.891,1.432-2.112,3.036-3.414,4.807-1.469,1.692-3.1,3.468-4.823,5.164-1.8,1.78-3.6,3.644-5.4,5.757-1.881,2.031-3.035,2.718-3.214,1.971-.346-.743-.6-1.073-.685-1.071-.166,0-.166,0,0-.25a34.945,34.945,0,0,1,2.94-3.3c1.8-1.947,3.433-3.724,4.9-5.5a39.06,39.06,0,0,0,4.073-5.235c1.218-1.77,2.433-3.707,3.728-5.894a65.268,65.268,0,0,0,4.181-8.568c1.438-3.522,2.633-6.624,3.5-9.387.871-2.6,1.418-4.689,1.973-6.281a27.3,27.3,0,0,0,1.245-5.017c.3-1.838.523-3.424.665-4.842a29.876,29.876,0,0,0,.189-3.5,4,4,0,0,0-.7-2.236,10.047,10.047,0,0,1-.856-1.318,2.986,2.986,0,0,1-.349-.91,1.2,1.2,0,0,1,.067-.917,1.147,1.147,0,0,1,.652-.845,2.368,2.368,0,0,1,1.082-.018,7.721,7.721,0,0,1,1.263.81q.76.613.763.737A35.147,35.147,0,0,1,303.639,615.944Z" fill="#fff" stroke="#fff" stroke-miterlimit="10" stroke-width="1"/>
      <path id="Path_9" data-name="Path 9" d="M391.942,654.874c3.256-9.134,4.549-16.151,3.8-21.135s-2.059-8.292-4.168-9.838a11.17,11.17,0,0,0-5.124-2.492,7.816,7.816,0,0,0-4.556,1.328q-6.324,17.1-11.839,23.192c-3.761,3.979-6.558,5.943-8.228,5.722a4.644,4.644,0,0,1-3.715-2.933c-.779-1.736-.661-4.486.521-8.337,1.1-3.85,3.945-7.814,8.373-11.721A106.4,106.4,0,0,1,379.5,619.2a64.42,64.42,0,0,1,7.144-1.04,9.369,9.369,0,0,1,6.113,1.976,14.774,14.774,0,0,1,5.276,6.486c1.3,2.81,1.787,6.965,1.629,12.214-.239,5.417-1.883,11.441-5.1,18.076-3.3,6.637-7.207,11.785-11.81,15.279s-7.071,5.2-7.491,4.961-.426-.493.15-.919A74.441,74.441,0,0,0,391.942,654.874Zm-14.6-30.309c-7.163,4.706-11.5,8.945-13.356,12.558-1.769,3.612-2.64,6.209-2.695,7.792a3.3,3.3,0,0,0,1.973,3.3A47.832,47.832,0,0,0,377.341,624.565Z" fill="#fff" stroke="#fff" stroke-miterlimit="10" stroke-width="1"/>
      <path id="Path_10" data-name="Path 10" d="M426.686,635.693a13.665,13.665,0,0,0,2.82-5.379,25.66,25.66,0,0,0,.657-5.341,14.224,14.224,0,0,0-.927-5.4c-1.6-.888-2.2-2.044-1.642-3.469.561-1.258,1.476-1.275,3-.052a6.7,6.7,0,0,1,2.314,3.791,30.141,30.141,0,0,0,.657,4.235,86.335,86.335,0,0,1,15.239-9.593c1-.016,1.426.559,1.2,1.9a4.962,4.962,0,0,1-2.524,3.292c-1.4.857-2.231,1.038-2.572.545l-2.8,2.047c1.592.555,2.7,2.118,3.159,4.442a11.176,11.176,0,0,0,2.258,5.373c1.019,1.148.952,2.065-.285,2.754a1.6,1.6,0,0,1-2.6-.788,30.462,30.462,0,0,1-1.841-5.3,5.433,5.433,0,0,0-4.24-4.34l-5.688,3.347a35.9,35.9,0,0,1-7.038,11.865C424.994,638.971,425.22,637.634,426.686,635.693Zm16.458,7.791a53.729,53.729,0,0,1-4.957,2.335c-.415.091-.664.1-.749.013a.909.909,0,0,1-.34-.41,1.413,1.413,0,0,1-.015-.833,1.986,1.986,0,0,1,.732-1.012,12.132,12.132,0,0,1,1.484-.858c.494-.342,2.225-1.371,5.195-3.005,2.887-1.55,5.2-2.922,6.927-3.868a73.958,73.958,0,0,0,6.508-4.112c2.632-1.878,4.194-3.07,4.769-3.5a6.243,6.243,0,0,1,1.48-1.108,3.105,3.105,0,0,1,1.241-.438,1.964,1.964,0,0,1,.758.487c2.425-4.206,3.876-6.98,4.184-8.4.393-1.339.294-2.254-.13-2.663-.421-.326-.438-1.241.038-2.665l-9.257,4.075a33.8,33.8,0,0,1-4.457,7.073c-1.3,1.605-2.045,2.118-2.139,1.453a3.42,3.42,0,0,1,1.041-2.35c.733-.929,1.522-3.441,2.531-7.706s.88-6.844-.386-7.821c-1.264-.811-1.694-1.636-1.373-2.308s1.066-.934,2.153-.7a3.637,3.637,0,0,1,2.452,2.123,4.1,4.1,0,0,1,.473,3.239,6.113,6.113,0,0,0-.11,3.25c7.525-3.045,13.061-5.557,16.612-7.285,3.466-1.808,5.62-2.428,6.3-1.774.761.652.2,1.828-1.439,3.439q-2.578,2.544-3.216,1.8c-.507-.408-1.34-.394-2.5.127-1.073.6-2.726,1.3-4.791,2.248a2.1,2.1,0,0,1,1.455,2.307c-.745,5.009-1.929,8.777-3.552,11.22-1.7,2.612-3.1,3.968-4.087,4.4-.245.255-.571.676-1.062,1.184-.574.51-1.316.94-2.138,1.536-.906.6-2.472,1.542-4.533,2.745-2.06,1.285-3.71,2.146-4.782,2.748a8.927,8.927,0,0,1,1.207,2.394,20.137,20.137,0,0,1,.2,2.161,19.663,19.663,0,0,1-.2,2.918c-.231,1.087-.3,1.838-.379,2.172,3.061-1.136,5.3-1.841,6.624-2.2,1.327-.273,2.655-.546,3.9-.735a31.6,31.6,0,0,1,3.992-.319c1.417.059,2.833.117,4.5.172a35.873,35.873,0,0,0,4.246-.074,15.52,15.52,0,0,1,2.663-.129,5.8,5.8,0,0,1,1.42.308,1.146,1.146,0,0,1,.681.821,3.612,3.612,0,0,1-.06,1.333,2.169,2.169,0,0,1-.479,1.175,2.016,2.016,0,0,1-.74.6c-.249,0-1.581.028-3.915-.1-2.419-.208-4.253-.342-5.588-.486a20.284,20.284,0,0,0-4.5.078c-1.745.2-3.654.564-5.812,1.018a74.147,74.147,0,0,0-7.784,2.467,37.038,37.038,0,0,1-3.029,7.8c-1.445,3.106-2.653,5.459-3.457,7.138a17.1,17.1,0,0,1-3.244,4.97c-1.3,1.606-2.856,3.381-4.322,5.322a13.327,13.327,0,0,1-5.176,4c-1.819.782-3.058,1.386-3.553,1.644s-.581.094-.255-.328a39.612,39.612,0,0,1,3.269-3.555c1.883-1.865,3.6-3.811,5.231-5.671a51.683,51.683,0,0,0,3.979-5.815c1.049-1.934,2.341-4.288,3.791-7.062a32.055,32.055,0,0,0,2.959-7.046c-1.158.437-2.646,1.045-4.382,1.824a56.269,56.269,0,0,1-5.626,2.1,45.846,45.846,0,0,1-5.053,1.587,30.924,30.924,0,0,1-3.569.646,8.546,8.546,0,0,1-2.081.036c-.585-.074-.921-.234-1.008-.483a1.315,1.315,0,0,1-.261-.661,2.109,2.109,0,0,1,.639-1.51c.33-.172.742-.429,1.154-.686a7.846,7.846,0,0,1,1.327-.357,15.51,15.51,0,0,0,1.662-.2,23.28,23.28,0,0,0,2.9-.717c1.243-.354,3.394-1.141,6.208-2.19,2.811-1.131,5.79-2.266,8.936-3.32a22.3,22.3,0,0,0,.69-3.426q.335-2.254.442-3.256a8.224,8.224,0,0,0-.192-1.495,5.575,5.575,0,0,0-.349-.91c-.169-.164-.255-.329-.34-.411-.414.173-.911.349-1.406.608C448.183,641.148,446.2,642.1,443.144,643.484Zm12.734,9.189c.248-.087.752.153,1.426.558a33.226,33.226,0,0,1,3.385,3.106,38.992,38.992,0,0,0,4.152,4.092c1.352,1.141,2.957,2.446,4.9,3.828a33.851,33.851,0,0,0,5.309,3.572,65.845,65.845,0,0,0,6.472,3.385c2.69,1.452,4.2,2.175,4.79,2.5.5.324.759.569.847.818s-.076.417-.408.507a8.447,8.447,0,0,1-1.829.2,16.221,16.221,0,0,1-2.835-.2,23.43,23.43,0,0,1-2.929-.865,25.36,25.36,0,0,1-3.1-1.362c-1.092-.564-3.2-2.026-6.235-4.138s-5.822-4.4-8.357-6.518a39.834,39.834,0,0,1-4.743-4.5,5.373,5.373,0,0,1-1.452-2.139,3.8,3.8,0,0,1-.121-2.163A1.806,1.806,0,0,1,455.878,652.673Z" fill="#fff" stroke="#fff" stroke-miterlimit="10" stroke-width="1"/>
      <path id="Path_11" data-name="Path 11" d="M506.168,641.549a4.211,4.211,0,0,1,1.288,2.226,33.86,33.86,0,0,1-3.35,18.046,101.73,101.73,0,0,1-9.379,16.153c-.991.516-1.41.357-1.176-.563,5.164-9.5,8.448-17.052,9.592-23.068,1.229-5.934,1.171-9.264-.26-10.155-1.348-.893-1.031-1.814,1.031-2.933A2.355,2.355,0,0,1,506.168,641.549Zm31.389,23.52a20.185,20.185,0,0,0,3.339-9.051c-4.045,1.985-6.692,3.031-7.941,3.052-1.332.024-2-.3-1.934-1.049a8.993,8.993,0,0,1,.226-1.419l2.705-2.462a15.186,15.186,0,0,0,.619-2.676c.147-1.168.37-2.671.668-4.675a51.8,51.8,0,0,0,.3-6.668,4.123,4.123,0,0,1-1.6-1.055c-.506-.407-.353-1.159.379-2.171a3.331,3.331,0,0,0,.441-3.338c-.521-1.241-.868-2.068-1.129-2.646a10.979,10.979,0,0,1-2.653.629,2.138,2.138,0,0,0-1.814,1.031c-.4.756-.906.6-1.338-.31-.514-.823-.938-1.233-1.353-1.142-.413.174-3.141,1.3-8.014,3.637a118.029,118.029,0,0,1-11.331,4.528c-2.568.711-4.314.907-5.154.506-.838-.318-1.017-1.065-.54-2.322a2.066,2.066,0,0,1,2.3-1.623c1.083.064,1.919.217,2.585.205a6.223,6.223,0,0,0,2.078-.2c.662-.262,2.891-1.383,6.52-3.362a1.246,1.246,0,0,1,.47-1.757c.66-.344,1.238-.6,1.817-.865a15.73,15.73,0,0,0,2.8-11.457,25.239,25.239,0,0,0-7.6,3.546q-4.449,2.7-7.948,2.637c-2.416-.041-3.675-.6-3.857-1.515a2.45,2.45,0,0,1,.875-2.346,3,3,0,0,1,3.162-.139,5.1,5.1,0,0,0,4.571-.5c1.733-.947,3.715-1.9,5.942-3.1a4.656,4.656,0,0,0-3.29-2.44c-1.42-.226-2.839-.45-4.009-.68-.924-.484-1.1-1.147-.616-1.905a2.718,2.718,0,0,1,1.976-1.283c3.332.025,5.841.647,7.443,1.785,1.687,1.22,2.039,2.3,1.3,3.142,1.075-.435,2.73-1.047,4.881-1.834a11.873,11.873,0,0,1,5.063-1,1.82,1.82,0,0,1,1.7,2.052c-.064,1.084-.554,1.675-1.471,1.609a9.384,9.384,0,0,0-3.323.473,12.885,12.885,0,0,1-2.322.54,7.861,7.861,0,0,1,.706,7.067,24.186,24.186,0,0,1-3.061,5.965,26.434,26.434,0,0,1,8.608-3.064,1.787,1.787,0,0,1,1.9-.782c.67.238,1.255.394,1.841.551-.1-1.081.218-1.836,1.129-2.1s1.839.384,2.7,2.118c1.771-3.528,2.978-5.965,3.534-7.473.64-1.51.623-2.509-.137-3.079-.676-.571-.445-1.658.694-3.176-3.3,1.8-6.131,1.771-8.662-.1-.77-1.152-.45-1.907,1.045-2.184a19.459,19.459,0,0,0,10.62-2.266,43.122,43.122,0,0,1,9.264-3.575,23.019,23.019,0,0,0,6.04-2.271c1.316-.939,2.236-.705,2.676.619.438,1.243-.293,2.337-2.11,3.2a28.721,28.721,0,0,0-3.961,2.069,3.335,3.335,0,0,1-1.984.867c-.5.092-.838-.318-.851-1.068-3.806,1.4-7.529,2.8-11,4.355,1.665-.028,2.509.623,2.531,1.872-.5,4.672-2.75,9.458-6.915,14.194a13.939,13.939,0,0,1,1.526,6.3c3.469-1.642,6.109-3.02,8.01-3.886,1.815-.948,2.9-.883,3.082.029a5.092,5.092,0,0,1-.616,2.926,4.217,4.217,0,0,1-3.632,1.812,15.6,15.6,0,0,0-6.45,2.611l-.1,4a52.317,52.317,0,0,0,5.364-2.842c1.236-.771,2.391-1.374,3.3-1.973a3.316,3.316,0,0,1,2.906-.467c1.007.4.853,1.151-.291,2.42a22.864,22.864,0,0,1-3.279,2.972c-.821.681-1.317.855-1.325.439-.09-.415-.672-.321-1.91.284a21.618,21.618,0,0,0-4.923,4.249,24.5,24.5,0,0,0-1.077,5.1c3.224-1.387,6.531-2.778,9.838-4.168a54.516,54.516,0,0,1,10.6-3.349,85.735,85.735,0,0,1-.008-9.994,73.4,73.4,0,0,0-.734-13.477c-.354-1.16-2.017-1.048-5.075.255-3.058,1.386-5.786,2.515-8.181,3.639-2.313,1.124-3.56,1.229-3.576.313s1.464-2.024,4.268-3.572c2.806-1.465,5.859-3.1,9.16-4.824,3.3-1.555,5.381-1.841,6.232-.774q1.4,1.6,1.41,9.22c.007,5.163-.067,10.494-.051,16.239-.065,5.831-.239,10.164-.52,13.167-.894,1.265-1.808,1.364-2.659.3-.933-.983-1.054-3.146-.61-6.318a64.208,64.208,0,0,0-13.663,4.485,5.944,5.944,0,0,1,.162,4.494c-2.714,6.793-7.686,12.958-15.166,18.585-1.408.441-1.586-.222-.539-2.239A40.234,40.234,0,0,0,537.557,665.069Zm-6.229-8.551c-1.183,3.767-3.779,7.726-7.872,11.795A52.581,52.581,0,0,1,507.4,679.085c-2.315.957-2.9.717-1.678-.72a107.206,107.206,0,0,1,9.378-6.659,28.975,28.975,0,0,0,8.6-8.393c2.6-3.71,3.73-5.812,3.472-6.224s-.094-.664.481-1.091a23.368,23.368,0,0,0,1.97-1.616C531.289,654.27,531.885,655.009,531.328,656.518Zm-21.451-21.946c-.751-.07-1.018-1.064-.883-2.9a8.339,8.339,0,0,0-1.508-5.3c.3-1.837,1.373-2.438,3.47-1.558a6.236,6.236,0,0,1,1.568,3.969,10.289,10.289,0,0,1-1.077,5.1A1.406,1.406,0,0,1,509.877,634.572Zm-1.136,30.416a62.04,62.04,0,0,0,16.874-20.946c.4-.923.976-1.35,1.642-1.361.582-.01,1.013.815,1.124,2.395a5.843,5.843,0,0,1-1.754,4.528c-1.222,1.52-2.608,3.209-3.911,4.9a46.229,46.229,0,0,1-5.973,6.1,38.764,38.764,0,0,1-6.159,5.02C507.94,666.834,507.354,666.595,508.741,664.988Zm2.811-15.538a36.127,36.127,0,0,0,4.026-3.151c1.8-1.531,3.505-4.309,5.021-8.166a1.8,1.8,0,0,1,2.055-1.534q1.75.093,1.542,2.471c-3.064,5.8-6.323,9.937-9.782,12.162s-5.117,2.67-4.975,1.252A5.2,5.2,0,0,1,511.552,649.45Zm51.423,16.676c2.37,2.207,2.9,3.7,1.411,4.556-1.567.86-2.734.8-3.418-.191-2.8-3.2-6.288-7.219-10.45-11.893-.933-.983-.949-1.9-.046-2.664a1.67,1.67,0,0,1,2.5-.126C557.213,660.48,560.6,663.919,562.975,666.126Z" fill="#fff" stroke="#fff" stroke-miterlimit="10" stroke-width="1"/>
      <path id="Path_12" data-name="Path 12" d="M594.9,666.647c.68.822,1.846.8,3.58-.062,1.648-.944,5.359-3.091,10.963-6.437a120.362,120.362,0,0,0,18.09-13.306c6.482-5.526,10.025-7.753,10.546-6.513.523,1.323-2.421,4.456-8.829,9.482-6.407,5.107-16.286,11.692-29.8,19.838-3.479,1.06-5.892,1.186-7.158.208s-1.89-3.3-1.87-6.962,2.687-8.291,8-13.8c-1.592-.555-3.1-1.2-4.7-1.834-1.592-.555-2.619-2.119-3.165-4.775-.63-2.737.318-5.669,2.757-9.042s4.881-6.664,7.156-9.951c-2.013-.8-4.595-.836-7.829-.03a33.406,33.406,0,0,1-16.082-.553c-1.005-.315-1.183-.978-.536-2.073a2.535,2.535,0,0,1,3.061-1.136c1.422.309,2.51.623,3.513.856a13.637,13.637,0,0,0,3.756.517,50.721,50.721,0,0,0,8.149-.725c3.823-.483,7.561-.964,11.22-1.278s5.5.155,5.271,1.407a2.048,2.048,0,0,1-2.384,1.79,5.486,5.486,0,0,0-3.969,1.569,84.814,84.814,0,0,0-10.475,15.422c-.2,2.835.412,4.49,1.754,5.05a22.562,22.562,0,0,0,5.019,1.328,62.456,62.456,0,0,1,8.77-8.065c3.123-2.386,5.937-3.434,8.193-2.973,2.175.544,3.187,1.276,2.791,2.449s-1.224,1.437-2.65.879-3.087-.363-5.068.672c-1.9,1.032-4.846,3.831-8.852,8.148,1.595.722,2.277,1.626,1.877,2.549-.317.922-1.226,1.353-2.809,1.3-1.183-.979-2.255-.377-3.211,2.137a27.9,27.9,0,0,0-5.761,8.679C594.017,663.914,594.215,665.743,594.9,666.647Z" fill="#fff" stroke="#fff" stroke-miterlimit="10" stroke-width="1"/>
      <path id="Path_13" data-name="Path 13" d="M653.186,655.8c2.1-3.951,4.03-7.649,5.8-11.178,1.854-3.529,3.384-6.554,4.754-9.159a50.643,50.643,0,0,0,3.571-10.139c.926-4.18,1.295-6.934,1.187-8.348a7.448,7.448,0,0,0-1.564-3.721,1.545,1.545,0,0,1,.138-1.668c.323-.588,1.066-.935,2.313-1.039s1.934,1.049,2.229,3.625c.293,2.493-.6,8.755-2.67,18.867.857,15.725,1.26,29.292,1.21,40.785.358,1.409-.043,2.332-1.118,2.768-1.076.351-1.666-.055-1.768-1.136-.3-2.659-.374-7.155-.4-13.233s-.116-11.408-.277-15.9c-.163-4.577-.376-7.238-.723-8.065C662,645.4,658.2,651.883,654.383,657.611,652.318,658.563,651.89,657.905,653.186,655.8Zm24.3-19.91c-2.2,2.869-3.183,3.719-3.114,2.885a7.321,7.321,0,0,1,.541-2.424c.321-.672,1.777-3.113,4.2-7.236,2.429-3.956,3.9-10.31,4.5-18.732a5,5,0,0,1,.2-3.085c.4-1.089.973-1.516,2.061-1.2a10.642,10.642,0,0,1,1.273,6.14,48.592,48.592,0,0,1-1.343,8.934,118.4,118.4,0,0,0,12.99-4.807,60.117,60.117,0,0,1,7.777-2.967c2.485-.709,4.158-.322,5.263.992.942,1.482.789,2.234-.625,2.342a40.064,40.064,0,0,0-5.317.759c-5.382,1.759-10.515,3.514-15.316,5.18a5.925,5.925,0,0,1,.94,1.4,7.473,7.473,0,0,1,.539,2.24c.1.914.127,2.5.252,4.909.041,2.331.071,4.079.089,5.078,1.491-.443,4.64-1.33,9.444-2.829a61.73,61.73,0,0,1,8.621-2.316,3.991,3.991,0,0,1,1.917.133,1.29,1.29,0,0,1,.511.657,4.075,4.075,0,0,1-.39,1.506q-.481,1.008-2.725,1.3a38.128,38.128,0,0,0-6.3,1.526q-4.1,1.445-6.954,2.37c-1.9.615-3.229,1.054-3.976,1.234.133,2.829.189,6.076.338,9.821,1.906-.533,5.386-1.509,10.608-2.932,5.308-1.259,8.377-1.979,9.375-2.079a5.819,5.819,0,0,1,2,.214c.421.244.591.49.6.74a2.641,2.641,0,0,1-.557,1.508,3.536,3.536,0,0,1-2.728,1.13c-1.5.193-3.735.732-6.721,1.45-2.982.884-5.633,1.68-7.786,2.384a40.579,40.579,0,0,1-4.642,1.246c.583,9.568.842,14.893.782,16.226a22.157,22.157,0,0,1-.439,3.506,17.445,17.445,0,0,1-.789,2.512,3.88,3.88,0,0,1-1.139,1.518,1.991,1.991,0,0,1-1.163.187.807.807,0,0,1-.676-.571,4.981,4.981,0,0,1-.027-1.582c.071-.668.222-1.586.448-2.923a39.317,39.317,0,0,0,.166-4.833q-.048-2.746-.843-19.721c-.612-11.232-.805-17.558-.913-18.972a7.675,7.675,0,0,0-.8-3.15,5.885,5.885,0,0,1-.86-1.568l-1.571.611C682.122,629.314,679.606,633.1,677.489,635.891Z" fill="#fff" stroke="#fff" stroke-miterlimit="10" stroke-width="1"/>
      <path id="Path_14" data-name="Path 14" d="M783.715,642.446c.259.495.1.914-.393,1.339a2.946,2.946,0,0,1-1.57.694,1.123,1.123,0,0,0-1.062,1.184c.955,6.98-1.439,13.017-7.1,18.112-5.167,4.587-10.879,6.519-16.806,5.7-3.528-1.77-5.735-4.147-6.786-7.126s.8-6.426,5.4-10.42c4.679-3.913,11.46-6.613,20.344-8.183a14.116,14.116,0,0,0-10.4-3.982,79.047,79.047,0,0,0-12.541,1.966,16.815,16.815,0,0,0-6.9,5.284c-2.035,2.7-4.237,5.32-6.356,8.022-.987.684-1.819.781-2.408.375a1.137,1.137,0,0,1-.53-1.74c1.107-3.35,3.551-6.474,7.162-9.534a38.654,38.654,0,0,0,9.2-12.153,153.6,153.6,0,0,0,6.722-15.69c-2.318.79-4.719,1.581-7.04,2.205-2.32.706-4.067.82-5.074.338-.922-.318-1.185-1.062-.787-2.152s1.306-1.521,2.889-1.465a29.991,29.991,0,0,0,5.24-.342c3.8-1.565,6.623-2.28,8.46-1.979,1.756.386,1.709,2.468-.223,6.333s-4.986,10.163-9.082,18.812a32.421,32.421,0,0,1,7.98-.8c7.381-1.794,13.323-.065,17.747,5.271C782.21,642.057,783.458,642.034,783.715,642.446Zm-6.923,4.118a77.5,77.5,0,0,0-9.779,2.752,32.6,32.6,0,0,0-8.834,4.4c-2.8,1.964-4.173,4.236-4.293,6.9a9.53,9.53,0,0,0,5.429,5.735c3.666.1,7.636-1.465,11.912-4.621C775.561,657.162,777.39,652.217,776.792,646.564Z" fill="#fff" stroke="#fff" stroke-miterlimit="10" stroke-width="1"/>
      <path id="Path_15" data-name="Path 15" d="M840.2,623.72a44,44,0,0,1,7.21,2.789,9.757,9.757,0,0,1,3.734,4.015,29.8,29.8,0,0,1-1.476,6.105,14.738,14.738,0,0,1-4.308,6.071q-3.2,3.052-3.22,1.555a7.079,7.079,0,0,1,1.516-3.774,24.048,24.048,0,0,0,2.173-4.368,16.5,16.5,0,0,0,.992-5.18,40.565,40.565,0,0,0-27.664-5.681c-1.416-.059-2.007-.465-1.771-1.3.236-.754,1.306-1.521,3.294-2.139s5.151-.673,9.49-.165A45.6,45.6,0,0,1,840.2,623.72Zm12.1,35.181c1.752.22,2.428.791,2.031,1.88a2.076,2.076,0,0,1-2.641,1.379c-10.1-1.573-20.456-3.058-30.975-4.541-1.333-.059-1.926-.633-1.7-1.719.229-1.17,1.634-1.777,4.132-1.821C832.516,655.748,842.2,657.328,852.308,658.9Z" fill="#fff" stroke="#fff" stroke-miterlimit="10" stroke-width="1"/>
      <path id="Path_16" data-name="Path 16" d="M887.309,630.639c-3.713-2.767-5.493-4.569-5.5-5.151s.564-1.092,1.556-1.526a3.036,3.036,0,0,1,3.008.614c3.378,2.689,6.591,5.464,9.637,8.243a89.178,89.178,0,0,0,10.225,8.483,76.822,76.822,0,0,1,12.449-16.789c1.225-1.354,2.3-1.872,3.385-1.642q1.634.473.048,2.748a83.072,83.072,0,0,0-19.612,31.07c.134,2.913.828,4.483,2.168,4.959,1.426.559,3.591.521,6.661-.116,2.988-.552,7.87-2.385,14.392-5.663a120.828,120.828,0,0,1,12.625-6.633q4.716-1.828-.714,2.012-5.551,3.969-11.363,7.442a48.944,48.944,0,0,1-12.069,5.124c-4.227,1.157-7.465,1.712-9.8,1.5-2.252-.211-3.848-1.015-4.54-2.5a8.137,8.137,0,0,1-.923-5.146,27.213,27.213,0,0,1,1.479-5.939,58.831,58.831,0,0,1,3.289-7.219C896.515,638.057,891.021,633.405,887.309,630.639Z" fill="#fff" stroke="#fff" stroke-miterlimit="10" stroke-width="1"/>
      <path id="Path_17" data-name="Path 17" d="M992.83,649.282c1.09,5.228,3.568,8.849,7.352,10.947a16.16,16.16,0,0,0,5.764,1.067,10.169,10.169,0,0,1,4.934,1.163,1.915,1.915,0,0,1,.211,2.494c-.653.761-1.817.948-3.325.392-7.333-.289-12.282-2.285-14.678-5.991-2.563-3.7-3.789-7.179-3.844-10.342-.139-3.162.708-7.175,2.455-12.035a88.648,88.648,0,0,1,7.646-15.289c-10.77,3.268-18.968,5.909-24.513,7.921-5.626,2.1-8.775,2.984-9.282,2.577-.673-.4-.685-1.071-.119-2.081.482-1.007,1.8-1.613,3.878-2.065a23.5,23.5,0,0,0,5.551-1.6c1.489-.609,4.8-1.75,10.1-3.507,5.136-1.588,12.337-4.128,21.607-7.372,1.9-.866,3.4-.975,4.244-.24.928.734.531,1.822-.948,3.015C999.5,625.682,993.764,635.941,992.83,649.282Zm14.4-19.737c.317-.922,1.145-1.187,2.311-1.206a23.039,23.039,0,0,0,7.387,3.368c1.005.316,1.266.978.864,1.817-.318.839-1.228,1.188-2.561,1.127a8.181,8.181,0,0,1-7.379-2.869A1.632,1.632,0,0,1,1007.226,629.545Zm10.124-6.839a2.135,2.135,0,0,1,2.591.538,17.9,17.9,0,0,1,4.769,6.079c.7,2.071.048,2.747-2.208,2.287q-3.262-.817-5.608-6.4Q1015.865,623.483,1017.35,622.706Z" fill="#fff" stroke="#fff" stroke-miterlimit="10" stroke-width="1"/>
      <path id="Path_18" data-name="Path 18" d="M1039.215,619.572c-.1-.915.554-1.676,2.043-2.2,9.374-2.078,18.829-4.325,28.448-6.658.559-1.425,1.293-2.271,2.374-2.373a4.339,4.339,0,0,1,2.93.865,80.569,80.569,0,0,1,7.959-2.054c1.411-.274,2.656-.463,3.654-.563s1.5.224,1.515.89a2.3,2.3,0,0,1-1.634,1.86,30.915,30.915,0,0,1-5.222,1.424,65.918,65.918,0,0,0-6.964,1.786,65.2,65.2,0,0,0,.883,21.971q-.75,21.5-15.9,38.584c-1.542,2.358-2.936,3.631-4.436,3.575s-1.188-1.313.933-3.848a143.784,143.784,0,0,0,8.692-12.559,61.354,61.354,0,0,0,6.388-20.514,2.708,2.708,0,0,1-1.539,2.441c-1.157.52-2.823.466-5-.329a11.1,11.1,0,0,1-3.152-4.109c-.864-1.734-1.078-4.478-.727-8.232s.972-6.345,1.863-7.777a5.317,5.317,0,0,1,3.616-2.811,4.621,4.621,0,0,1,4.182,1.093,9.783,9.783,0,0,0-.275-6.241c-9.206,2.159-18.492,4.486-27.946,6.815C1040.236,620.887,1039.315,620.569,1039.215,619.572Zm30.648,9.709c.354-3.587-.773-6.149-3.547-7.6-1.763,3.944-2.542,7.039-2.423,9.036a16.371,16.371,0,0,0,1.006,5.228,4.818,4.818,0,0,0,2.8,3.117A30.974,30.974,0,0,0,1069.863,629.281Z" fill="#fff" stroke="#fff" stroke-miterlimit="10" stroke-width="1"/>
    </g>
    <g id="Group_25" data-name="Group 25">
      <g id="Group_24" data-name="Group 24">
        <path id="Path_19" data-name="Path 19" d="M270.162,728.97h-5.981v5.942h-2.8V720.949h2.8v5.741h5.981v-5.741h2.8v13.963h-2.8Z" fill="#fff"/>
        <path id="Path_20" data-name="Path 20" d="M277.68,720.949h2.8v8.641a2.832,2.832,0,1,0,5.661,0v-8.641h2.82v8.622c0,3.68-2.64,5.48-5.7,5.48s-5.581-1.8-5.581-5.48Z" fill="#fff"/>
        <path id="Path_21" data-name="Path 21" d="M293.66,720.949h3.181l4.441,10.382,4.441-10.382h3.16v13.963h-2.8V725.83l-3.741,9.082h-2.12l-3.762-9.082v9.082h-2.8Z" fill="#fff"/>
        <path id="Path_22" data-name="Path 22" d="M322.2,732.251H316.64l-.92,2.661h-2.941l5.021-13.984h3.261l5.021,13.984h-2.96Zm-2.78-8.082L317.4,730.01h4.041Z" fill="#fff"/>
        <path id="Path_23" data-name="Path 23" d="M341.9,720.928v13.984h-2.8l-6.342-9.582v9.582h-2.8V720.928h2.8l6.342,9.6v-9.6Z" fill="#fff"/>
        <path id="Path_24" data-name="Path 24" d="M356.219,720.949v11.742h4.6v2.221h-7.4V720.949Z" fill="#fff"/>
        <path id="Path_25" data-name="Path 25" d="M364.6,720.949h2.8v13.963h-2.8Z" fill="#fff"/>
        <path id="Path_26" data-name="Path 26" d="M372.159,720.949h8.622v2.26h-5.822v3.581h4.461v2.22h-4.461v5.9h-2.8Z" fill="#fff"/>
        <path id="Path_27" data-name="Path 27" d="M392.861,723.209h-5.3v3.5h4.7v2.221h-4.7v3.7h5.3v2.281h-8.1V720.928h8.1Z" fill="#fff"/>
        <path id="Path_28" data-name="Path 28" d="M408.98,735.051c-2.9,0-5.141-1.519-5.181-4.16h3a1.917,1.917,0,0,0,2.12,1.86c1.32,0,2.1-.7,2.1-1.7,0-3.021-7.2-1.2-7.182-6.261,0-2.521,2.04-4.041,4.921-4.041,2.861,0,4.821,1.459,5,3.98h-3.08a1.844,1.844,0,0,0-2-1.66c-1.1-.04-1.92.5-1.92,1.64,0,2.8,7.161,1.241,7.161,6.162C413.921,733.071,412.161,735.051,408.98,735.051Z" fill="#fff"/>
        <path id="Path_29" data-name="Path 29" d="M418.3,720.949h2.8v8.641a2.832,2.832,0,1,0,5.661,0v-8.641h2.82v8.622c0,3.68-2.641,5.48-5.7,5.48s-5.581-1.8-5.581-5.48Z" fill="#fff"/>
        <path id="Path_30" data-name="Path 30" d="M439.42,729.55h-2.341v5.362h-2.8V720.949h5.141c3.361,0,5.041,1.9,5.041,4.321C444.461,727.39,443.021,729.55,439.42,729.55Zm-.12-2.26c1.58,0,2.28-.78,2.28-2.02,0-1.28-.7-2.041-2.28-2.041h-2.221v4.061Z" fill="#fff"/>
        <path id="Path_31" data-name="Path 31" d="M453.58,729.55h-2.341v5.362h-2.8V720.949h5.142c3.36,0,5.041,1.9,5.041,4.321C458.621,727.39,457.18,729.55,453.58,729.55Zm-.121-2.26c1.581,0,2.281-.78,2.281-2.02,0-1.28-.7-2.041-2.281-2.041h-2.22v4.061Z" fill="#fff"/>
        <path id="Path_32" data-name="Path 32" d="M469.08,735.051a7.151,7.151,0,1,1,7.141-7.161A7.018,7.018,0,0,1,469.08,735.051Zm0-2.5c2.52,0,4.26-1.82,4.26-4.661s-1.74-4.621-4.26-4.621c-2.541,0-4.282,1.78-4.282,4.621S466.539,732.551,469.08,732.551Z" fill="#fff"/>
        <path id="Path_33" data-name="Path 33" d="M485.539,720.949c3.36,0,5.041,1.94,5.041,4.281a4.031,4.031,0,0,1-3.181,4.02l3.341,5.662H487.5l-3.082-5.442H483.1v5.442h-2.8V720.949Zm-.1,2.32H483.1v4.1h2.341c1.56,0,2.26-.82,2.26-2.08C487.7,724.049,487,723.269,485.439,723.269Z" fill="#fff"/>
        <path id="Path_34" data-name="Path 34" d="M494.377,720.949H504.62v2.26H500.9v11.7h-2.8v-11.7h-3.721Z" fill="#fff"/>
        <path id="Path_35" data-name="Path 35" d="M521.819,720.769a6.579,6.579,0,0,1,6.561,4.521h-3.22a3.521,3.521,0,0,0-3.361-2c-2.441,0-4.181,1.78-4.181,4.62,0,2.821,1.74,4.621,4.181,4.621a3.506,3.506,0,0,0,3.361-2.021h3.22a6.556,6.556,0,0,1-6.561,4.522,7.132,7.132,0,0,1,0-14.263Z" fill="#fff"/>
        <path id="Path_36" data-name="Path 36" d="M539.259,735.051a7.151,7.151,0,1,1,7.141-7.161A7.018,7.018,0,0,1,539.259,735.051Zm0-2.5c2.52,0,4.261-1.82,4.261-4.661s-1.741-4.621-4.261-4.621c-2.541,0-4.281,1.78-4.281,4.621S536.718,732.551,539.259,732.551Z" fill="#fff"/>
        <path id="Path_37" data-name="Path 37" d="M550.477,720.949h3.181l4.441,10.382,4.441-10.382h3.16v13.963h-2.8V725.83l-3.74,9.082h-2.12l-3.762-9.082v9.082h-2.8Z" fill="#fff"/>
        <path id="Path_38" data-name="Path 38" d="M575.6,729.55h-2.341v5.362h-2.8V720.949H575.6c3.361,0,5.041,1.9,5.041,4.321C580.639,727.39,579.2,729.55,575.6,729.55Zm-.12-2.26c1.581,0,2.28-.78,2.28-2.02,0-1.28-.7-2.041-2.28-2.041h-2.221v4.061Z" fill="#fff"/>
        <path id="Path_39" data-name="Path 39" d="M593.178,732.251h-5.561l-.92,2.661h-2.941l5.021-13.984h3.261l5.021,13.984H594.1Zm-2.78-8.082-2.021,5.841h4.041Z" fill="#fff"/>
        <path id="Path_40" data-name="Path 40" d="M612.879,720.928v13.984h-2.8l-6.342-9.582v9.582h-2.8V720.928h2.8l6.342,9.6v-9.6Z" fill="#fff"/>
        <path id="Path_41" data-name="Path 41" d="M616.476,720.949h3.161l3,6.381,2.981-6.381h3.121l-4.721,9.1v4.862h-2.8V730.05Z" fill="#fff"/>
      </g>
    </g>
  </g>
</svg>
